<svg xmlns="http://www.w3.org/2000/svg" width="1024" height="1024" viewBox="0 0 1024 1024" version="1.1">
	<path d="M 464.895 388.441 C 461.485 389.386, 457.004 393.489, 457.001 395.667 C 457.001 396.308, 456.540 396.987, 455.979 397.174 C 455.417 397.361, 454.855 398.930, 454.729 400.660 C 454.603 402.390, 454.163 403.597, 453.750 403.344 C 453.337 403.090, 453 403.776, 453 404.868 C 453 405.960, 453.788 407.059, 454.750 407.311 C 456.093 407.662, 455.987 407.795, 454.295 407.884 C 452.556 407.976, 451.960 408.791, 451.470 411.750 C 451.128 413.813, 450.379 416.734, 449.806 418.243 C 449.232 419.752, 448.973 421.790, 449.230 422.773 C 449.487 423.755, 449.049 425.165, 448.256 425.905 C 447.441 426.667, 447.017 428.307, 447.280 429.682 C 447.543 431.060, 447.103 432.754, 446.264 433.593 C 445.404 434.453, 444.955 436.241, 445.193 437.861 C 445.418 439.394, 445.017 441.195, 444.301 441.864 C 443.585 442.532, 443 444.636, 443 446.539 C 443 448.443, 442.499 450, 441.887 450 C 441.217 450, 440.949 451.203, 441.216 453.019 C 441.478 454.805, 441.116 456.488, 440.330 457.141 C 439.598 457.748, 439 459.690, 439 461.456 C 439 463.222, 438.691 464.976, 438.313 465.354 C 437.621 466.046, 437.233 468.188, 436.885 473.250 C 436.781 474.762, 436.314 476, 435.848 476 C 435.382 476, 435.007 476.788, 435.015 477.750 C 435.028 479.246, 435.172 479.282, 436 478 C 436.533 477.175, 436.976 476.879, 436.985 477.342 C 436.993 477.806, 436.100 479.329, 435 480.727 C 433.900 482.126, 433 484.469, 433 485.935 C 433 487.401, 432.594 489.027, 432.097 489.550 C 431.601 490.072, 430.949 493.200, 430.650 496.500 C 429.855 505.256, 429.279 508.121, 428.074 509.326 C 427.483 509.917, 427 511.692, 427 513.271 C 427 514.851, 426.325 516.818, 425.500 517.643 C 424.603 518.540, 424 518.689, 424 518.012 C 424 517.391, 423.550 517.160, 423 517.500 C 422.450 517.840, 422 518.943, 422 519.952 C 422 520.961, 421.438 522, 420.750 522.262 C 419.877 522.595, 419.493 521.495, 419.475 518.619 C 419.448 514.035, 418.494 509.459, 412.936 487.259 C 408.581 469.865, 405.149 461.438, 400.753 457.349 C 399.069 455.782, 398.059 455.139, 398.509 455.920 C 399.148 457.028, 398.908 457.161, 397.414 456.525 C 396.361 456.077, 394.712 455.680, 393.750 455.641 C 391.404 455.548, 391.546 455.107, 394.250 454.087 C 395.904 453.464, 394.910 453.231, 390.500 453.208 C 382.288 453.166, 380.986 452.898, 384.500 451.976 C 387.442 451.204, 387.429 451.190, 383.815 451.294 C 381.788 451.352, 380.352 451.760, 380.624 452.200 C 380.896 452.640, 377.069 453, 372.121 453 L 363.124 453 363.159 463 L 363.195 473 372.163 473 C 377.096 473, 382.114 473.505, 383.316 474.122 C 385.013 474.995, 385.248 474.976, 384.369 474.041 C 383.747 473.379, 380.822 472.227, 377.869 471.481 L 372.500 470.124 377.500 470.646 C 383.097 471.231, 387.451 474.800, 388.598 479.742 C 388.950 481.259, 389.854 483.489, 390.608 484.698 C 391.397 485.964, 391.584 487.139, 391.049 487.470 C 390.484 487.819, 390.529 489.219, 391.162 491.035 C 391.735 492.679, 391.939 494.718, 391.614 495.564 C 391.276 496.445, 391.446 496.842, 392.011 496.493 C 392.555 496.157, 393.006 496.921, 393.014 498.191 C 393.038 502.233, 394.183 504.998, 395.867 505.079 C 396.903 505.129, 397.043 505.342, 396.250 505.662 C 394.758 506.265, 394.584 509.625, 396 510.500 C 396.550 510.840, 397 511.980, 397 513.033 C 397 516.177, 402.193 536.999, 402.872 536.579 C 403.218 536.366, 403.539 537.836, 403.588 539.845 C 403.636 541.855, 404.449 546.425, 405.395 550 C 406.341 553.575, 408.057 560.325, 409.209 565 C 410.361 569.675, 411.797 573.831, 412.401 574.235 C 413.158 574.741, 413.109 574.974, 412.242 574.985 C 411.240 574.997, 411.234 575.402, 412.214 576.971 C 413.574 579.149, 416.922 580.719, 421.500 581.325 C 423.150 581.544, 422.700 581.636, 420.500 581.531 C 418.300 581.426, 415.639 580.962, 414.586 580.500 C 413.251 579.914, 412.884 580.003, 413.372 580.793 C 414.697 582.936, 421.145 584.037, 425.222 582.815 C 428.926 581.706, 432.443 579, 430.181 579 C 429.597 579, 428.840 579.450, 428.500 580 C 428.160 580.550, 427.358 581, 426.718 581 C 426.079 581, 426.519 580.325, 427.696 579.500 C 428.874 578.675, 430.549 578.273, 431.419 578.607 C 432.481 579.015, 433 578.652, 433 577.502 C 433 573.908, 466.236 440.431, 467.427 439.239 C 467.754 438.913, 468.677 439.513, 469.479 440.573 C 470.600 442.055, 470.949 442.154, 470.990 441 C 471.099 437.973, 474.956 444.501, 474.978 447.750 C 474.990 449.538, 475.477 451, 476.059 451 C 476.641 451, 476.890 451.370, 476.610 451.822 C 476.331 452.274, 476.754 453.900, 477.551 455.436 C 478.348 456.972, 479 459.120, 479 460.210 C 479 462.711, 482.460 467.633, 485.320 469.197 C 486.519 469.854, 489.300 470.696, 491.500 471.070 C 495.370 471.728, 495.393 471.754, 492.200 471.875 C 488.150 472.028, 483.860 469.909, 481.088 466.385 C 479.940 464.925, 479 464.193, 479 464.759 C 479 466.923, 484.786 471.847, 488.558 472.894 C 490.726 473.496, 497.450 473.993, 503.500 473.998 C 512.933 474.006, 514.999 474.310, 518 476.129 L 521.500 478.250 519.500 475.979 L 517.500 473.709 519.500 474.779 C 522.409 476.336, 525 479.728, 525 481.980 C 525 483.056, 525.563 483.800, 526.250 483.633 C 526.938 483.465, 527.272 483.480, 526.993 483.666 C 526.715 483.852, 526.652 492.328, 526.853 502.502 C 527.112 515.606, 526.896 521, 526.110 521 C 525.499 521, 525 522.098, 525 523.441 C 525 524.784, 524.550 526.160, 524 526.500 C 523.450 526.840, 523 527.991, 523 529.059 C 523 530.127, 522.550 531, 522 531 C 521.450 531, 521 531.695, 521 532.545 C 521 534.566, 517.097 538.416, 512.315 541.112 C 509.204 542.866, 506.805 543.272, 499.320 543.313 C 494.272 543.340, 489.547 542.896, 488.820 542.326 C 488.094 541.757, 485.363 540.677, 482.750 539.927 C 480.137 539.177, 478 538.212, 478 537.782 C 478 537.352, 476.476 537, 474.613 537 C 471.593 537, 471.157 537.351, 470.576 540.250 C 468.374 551.237, 467.257 556.468, 464.920 566.750 C 464.327 569.362, 463.610 573.750, 463.328 576.500 C 463.046 579.250, 462.407 581.927, 461.908 582.450 C 461.409 582.972, 461 584.795, 461 586.500 C 461 588.205, 460.596 590.028, 460.102 590.550 C 459.197 591.508, 458.369 596.104, 457.363 605.750 C 456.828 610.874, 456.877 611, 459.407 611 C 460.833 611, 462 610.786, 462 610.524 C 462 609.994, 470.674 567.738, 471.479 564.344 L 471.991 562.189 477.245 564.215 C 490.452 569.308, 502.032 570.251, 513.234 567.145 C 530.937 562.236, 544.045 548.169, 549.103 528.655 C 554.906 506.261, 553.308 478.523, 545.375 463.947 C 542.677 458.990, 539 454.823, 539 456.723 C 539 457.290, 539.746 458.373, 540.658 459.128 C 542.618 460.749, 548.033 471.839, 547.920 474 C 547.866 475.034, 547.685 475.110, 547.336 474.244 C 547.057 473.553, 546.460 473.216, 546.008 473.495 C 545.556 473.774, 545.407 473.161, 545.676 472.131 C 546.411 469.322, 541.505 460.487, 537.524 457.451 C 535.597 455.980, 534.267 454.378, 534.569 453.889 C 534.871 453.400, 534.641 453, 534.059 453 C 533.477 453, 533 453.466, 533 454.035 C 533 454.680, 532.151 454.591, 530.750 453.802 C 529.358 453.017, 522.906 452.336, 513.829 452.017 C 500.020 451.530, 499.005 451.357, 496.569 449.067 C 494.785 447.389, 494.174 446.026, 494.604 444.674 C 494.946 443.596, 494.740 441.091, 494.147 439.107 C 493.553 437.123, 490.335 426.275, 486.996 415 C 481.072 394.995, 478.739 389.617, 475.896 389.407 C 471.722 389.100, 471.464 388.992, 472.834 388.124 C 474.621 386.991, 469.370 387.201, 464.895 388.441 M 478.202 394.728 C 480.421 400.058, 481.578 401.137, 480.498 396.868 C 480.169 395.566, 479.028 393.375, 477.963 392 C 476.199 389.722, 476.220 389.965, 478.202 394.728 M 237 402 C 236.175 402.533, 234.576 402.976, 233.446 402.985 C 231.345 403, 226.590 407.568, 224.120 411.944 C 222.132 415.466, 222.451 424.375, 224.703 428.232 C 229.083 435.730, 240.903 437.977, 248.727 432.799 C 256.368 427.743, 259.289 416.673, 254.750 409.976 C 252.422 406.541, 249.076 404.349, 242.929 402.231 C 238.689 400.769, 238.892 400.777, 237 402 M 481.652 403.964 C 482.310 407.759, 484.825 415.104, 484.916 413.500 C 484.947 412.950, 484.090 409.800, 483.011 406.500 C 481.933 403.200, 481.321 402.059, 481.652 403.964 M 693.102 404.807 C 691.189 406.443, 691.152 407.228, 692.015 428 C 693.323 459.469, 693.229 550.834, 691.883 557.111 C 691.091 560.802, 691.088 562.897, 691.871 564.616 C 692.940 566.963, 693.175 567, 706.979 567 L 721 567 721 486.059 C 721 441.541, 720.620 404.883, 720.156 404.596 C 719.691 404.309, 713.860 403.858, 707.197 403.594 C 696.803 403.181, 694.801 403.354, 693.102 404.807 M 78.175 406.289 C 76.694 408.074, 76.391 564.791, 77.866 566.266 C 79.259 567.659, 163.405 566.527, 169.500 565.034 C 182.095 561.947, 193.226 554.447, 199.934 544.527 C 208.257 532.219, 209.272 514.577, 202.441 500.937 C 200.041 496.145, 192.965 489, 190.620 489 C 189.863 489, 188.627 488.252, 187.872 487.338 C 187.118 486.424, 185.213 484.891, 183.640 483.932 L 180.780 482.188 183.034 480.982 C 187.334 478.681, 194.191 471.557, 196.508 466.985 C 200.097 459.901, 201.356 450.784, 199.887 442.507 C 197.634 429.809, 189.989 419.369, 179 413.983 C 175.425 412.231, 171.719 410.393, 170.764 409.899 C 169.809 409.404, 167.986 409, 166.714 409 C 165.441 409, 163.837 408.438, 163.150 407.750 C 162.196 406.796, 152.848 406.483, 123.700 406.430 C 102.690 406.391, 84.125 406.015, 82.444 405.594 C 80.244 405.042, 79.048 405.237, 78.175 406.289 M 453.813 409.683 C 454.534 409.972, 455.397 409.936, 455.729 409.604 C 456.061 409.272, 455.471 409.036, 454.417 409.079 C 453.252 409.127, 453.015 409.364, 453.813 409.683 M 454.500 414 C 454.160 414.550, 454.359 415, 454.941 415 C 455.523 415, 456 414.550, 456 414 C 456 413.450, 455.802 413, 455.559 413 C 455.316 413, 454.840 413.450, 454.500 414 M 485.015 415.583 C 485.023 416.087, 486.625 421.900, 488.574 428.500 C 490.524 435.100, 492.229 441.049, 492.364 441.721 C 492.648 443.137, 494 444.689, 494 443.599 C 494 442.559, 485.852 415.588, 485.385 415.083 C 485.173 414.854, 485.007 415.079, 485.015 415.583 M 289 435.358 C 289 449.572, 288.966 449.792, 286.535 451.385 C 283.602 453.307, 280.581 453.415, 274.592 451.813 C 267.556 449.932, 266.875 451.047, 267.218 463.899 L 267.500 474.500 276.919 474.790 C 284.401 475.020, 286.605 475.431, 287.637 476.790 C 288.636 478.105, 288.944 485.643, 288.968 509.429 C 289.003 543.623, 289.301 545.682, 295.727 556.229 C 298.145 560.199, 302.999 563.161, 311.407 565.799 C 317.796 567.804, 336.362 567.794, 343.500 565.782 L 348.500 564.373 348.785 553.543 L 349.071 542.713 343.285 543.493 C 327.713 545.594, 321.109 542.851, 318.977 533.396 C 318.331 530.535, 317.502 487.909, 317.894 477.750 L 318 475 333.500 475 L 349 475 348.985 464.250 C 348.976 458.337, 348.612 452.937, 348.174 452.248 C 347.346 450.944, 335.982 451.108, 327.266 452.550 C 324.118 453.071, 322.393 452.832, 320.543 451.620 C 318.109 450.025, 318.049 449.679, 317.777 435.745 L 317.500 421.500 303.250 421.223 L 289 420.945 289 435.358 M 108 452.133 C 108 470.728, 108.063 471.320, 110.250 473.221 C 111.967 474.713, 113.329 475.026, 116 474.543 C 117.925 474.194, 126.925 473.748, 136 473.551 C 146.773 473.317, 153.715 472.719, 156 471.827 C 165.603 468.080, 169 462.905, 169 452.026 C 169 442.127, 167.422 439.699, 158.221 435.442 C 153.119 433.082, 152.192 433, 130.471 433 L 108 433 108 452.133 M 465.218 438.250 C 464.654 438.938, 462.963 444.675, 461.461 451 C 459.959 457.325, 458.149 463.339, 457.440 464.365 C 456.731 465.390, 456.390 466.853, 456.682 467.615 C 456.975 468.377, 456.881 469.788, 456.475 470.750 C 456.068 471.712, 455.612 473.400, 455.461 474.500 C 455.311 475.600, 454.445 479.362, 453.538 482.861 C 452.630 486.359, 452.080 489.413, 452.314 489.647 C 452.549 489.882, 455.564 478.695, 459.015 464.787 C 462.467 450.879, 465.730 438.938, 466.268 438.250 C 466.805 437.563, 467.020 437, 466.745 437 C 466.470 437, 465.783 437.563, 465.218 438.250 M 496 447.378 C 496 447.585, 496.788 448.373, 497.750 449.128 C 499.336 450.371, 499.371 450.336, 498.128 448.750 C 496.821 447.084, 496 446.555, 496 447.378 M 775.500 449.968 C 774.400 450.458, 772.031 450.891, 770.236 450.930 C 768.441 450.968, 766.191 451.398, 765.236 451.885 C 764.281 452.372, 760.861 454.060, 757.635 455.635 C 750.804 458.972, 744.624 464.752, 742.399 469.885 C 741.537 471.873, 740.420 474.281, 739.916 475.236 C 738.676 477.588, 738.747 494.725, 740 495.500 C 740.550 495.840, 741 497.238, 741 498.607 C 741 500.244, 742.624 502.714, 745.750 505.830 C 753.055 513.110, 761.928 516.733, 780.247 519.914 C 801.158 523.545, 807 526.782, 807 534.737 C 807 540.785, 804.924 544.210, 799.600 546.948 C 795.838 548.883, 793.555 549.282, 786.430 549.249 C 781.525 549.227, 777.334 548.734, 776.705 548.105 C 776.097 547.497, 775.003 547, 774.273 547 C 772.223 547, 766.002 540.910, 763.949 536.893 C 762.920 534.880, 760.867 532.794, 759.303 532.172 C 756.222 530.947, 738.251 531.071, 736.250 532.331 C 734.319 533.547, 734.770 540.533, 737.100 545.490 C 740.373 552.452, 750.467 561.255, 758.654 564.288 C 773.934 569.948, 791.423 570.430, 806.548 565.607 C 825.417 559.590, 835.001 547.836, 834.999 530.712 C 834.999 524.838, 834.463 522.368, 832.112 517.398 C 829.028 510.880, 826.434 508.524, 818.500 505.035 C 815.750 503.826, 812.719 502.423, 811.764 501.918 C 810.809 501.413, 809.148 501, 808.073 501 C 806.998 501, 805.869 500.598, 805.565 500.106 C 805.261 499.614, 803.322 498.956, 801.256 498.645 C 799.190 498.333, 794.800 497.593, 791.500 497 C 788.200 496.407, 783.730 495.659, 781.566 495.338 C 777.088 494.674, 768.456 489.720, 766.984 486.970 C 766.443 485.959, 766 483.267, 766 480.989 C 766 473.424, 773.023 469.018, 785.101 469.006 C 788.181 469.003, 792.231 469.520, 794.101 470.155 C 799.056 471.839, 804.954 476.228, 804.979 478.250 C 804.990 479.212, 805.419 480, 805.930 480 C 806.442 480, 807.005 481.012, 807.180 482.250 C 807.492 484.442, 807.853 484.507, 821.118 484.777 L 834.737 485.055 833.804 479.777 C 832.809 474.149, 828.153 465.469, 824.017 461.531 C 820.889 458.554, 810.434 453, 807.957 453 C 806.946 453, 805.869 452.598, 805.565 452.106 C 804.323 450.095, 779.218 448.310, 775.500 449.968 M 890.500 449.969 C 889.400 450.459, 887.124 450.891, 885.443 450.930 C 881.339 451.024, 870.011 456.834, 863.923 461.968 C 858.626 466.434, 852.171 475.311, 850.083 481 C 849.376 482.925, 848.427 485.400, 847.974 486.500 C 846.207 490.790, 845.682 494.994, 845.292 507.960 C 845.057 515.750, 845.305 522.279, 845.881 523.460 C 846.428 524.582, 847.087 527.075, 847.345 529 C 849.218 542.977, 858.664 556.228, 871.346 562.670 C 887.554 570.902, 911.201 570.964, 928 562.819 C 936.450 558.722, 945.431 549.658, 949.750 540.869 C 954.739 530.715, 954.990 531, 941.077 531 L 929.155 531 924.440 536.518 C 919.876 541.861, 917.463 543.412, 909.929 545.846 C 905.541 547.264, 896.342 547.362, 895.500 546 C 895.160 545.450, 894.002 545, 892.927 545 C 885.845 545, 874.725 530.824, 873.264 519.932 L 872.737 516 914.515 516 L 956.294 516 955.716 504.250 C 955.085 491.424, 953.089 483.785, 947.726 473.669 C 944.644 467.854, 933.967 457, 931.330 457 C 930.598 457, 930 456.550, 930 456 C 930 455.450, 929.100 455, 928 455 C 926.900 455, 926 454.550, 926 454 C 926 453.450, 925.100 453, 924 453 C 922.900 453, 922 452.597, 922 452.105 C 922 450.116, 894.379 448.243, 890.500 449.969 M 225.667 451.667 C 225.300 452.033, 225 478.146, 225 509.694 L 225 567.055 239.250 566.777 L 253.500 566.500 253.758 509.320 C 254.054 443.815, 255.237 450.438, 243.492 451.874 C 239.579 452.353, 235.480 452.349, 234.185 451.865 C 231.438 450.839, 226.607 450.726, 225.667 451.667 M 573 451.670 C 571.075 451.862, 568.069 452.255, 566.321 452.542 L 563.142 453.064 563.107 493.495 C 563.086 518.399, 563.442 534.155, 564.036 534.522 C 564.566 534.850, 565 536.335, 565 537.823 C 565 541.684, 568.441 550.578, 571.473 554.553 C 576.450 561.079, 583.194 564.984, 594 567.598 C 609.794 571.419, 625.164 567.125, 636.182 555.813 C 638.760 553.166, 641.073 551, 641.320 551 C 641.567 551, 642.083 553.587, 642.465 556.750 C 643.680 566.786, 644.015 567, 658.523 567 L 671 567 671 510.121 L 671 453.243 667.964 451.985 C 665.872 451.119, 663.151 450.970, 659.214 451.506 C 656.071 451.934, 651.700 452.398, 649.500 452.537 C 647.300 452.676, 644.955 452.837, 644.288 452.895 C 643.374 452.974, 642.968 461.299, 642.638 486.750 C 642.398 505.313, 641.879 522.717, 641.486 525.428 C 640.084 535.087, 634.207 541.501, 624.987 543.435 C 618.162 544.867, 609.805 545.205, 608.694 544.094 C 608.092 543.492, 606.431 543, 605.003 543 C 603.294 543, 601.203 541.718, 598.888 539.250 C 592.407 532.341, 592.530 533.211, 592.195 491.747 L 591.890 453.994 588.994 452.497 C 586.288 451.098, 581.303 450.840, 573 451.670 M 401.543 461.269 C 403.728 465.173, 403.986 466.312, 402.965 467.542 C 401.933 468.786, 401.991 468.941, 403.301 468.438 C 404.926 467.814, 407.354 474.467, 411.535 491 C 413.306 498.006, 414.674 500.730, 413.543 495 C 410.771 480.953, 404.417 463.096, 400.555 458.500 C 399.630 457.400, 400.075 458.646, 401.543 461.269 M 369.813 470.683 C 370.534 470.972, 371.397 470.936, 371.729 470.604 C 372.061 470.272, 371.471 470.036, 370.417 470.079 C 369.252 470.127, 369.015 470.364, 369.813 470.683 M 891.183 471.838 C 882.635 474.892, 876.200 482.371, 874.621 491.083 C 873.620 496.607, 875.407 497, 901.524 497 L 923.954 497 925.528 494.598 C 926.988 492.369, 926.940 491.845, 924.862 487.348 C 919.671 476.116, 913.371 471.274, 902.867 470.442 C 898.135 470.068, 895.135 470.426, 891.183 471.838 M 506.813 471.683 C 507.534 471.972, 508.397 471.936, 508.729 471.604 C 509.061 471.272, 508.471 471.036, 507.417 471.079 C 506.252 471.127, 506.015 471.364, 506.813 471.683 M 512.813 472.683 C 513.534 472.972, 514.397 472.936, 514.729 472.604 C 515.061 472.272, 514.471 472.036, 513.417 472.079 C 512.252 472.127, 512.015 472.364, 512.813 472.683 M 548.629 479 C 548.976 480.925, 549.603 489.250, 550.023 497.500 L 550.787 512.500 550.494 497 C 550.332 488.475, 549.705 480.150, 549.099 478.500 L 547.998 475.500 548.629 479 M 450.375 494.559 C 449.783 496.452, 449.646 498, 450.070 498 C 450.879 498, 452.459 492.126, 451.821 491.488 C 451.618 491.285, 450.968 492.667, 450.375 494.559 M 107.966 500.250 C 107.899 506.611, 107.877 534.526, 107.938 536.023 C 107.972 536.860, 109.597 538.405, 111.548 539.456 C 114.567 541.081, 115.584 541.191, 118.357 540.188 C 120.501 539.413, 128.630 539.043, 142.083 539.110 C 165.997 539.229, 167.622 538.761, 172.227 530.432 C 174.475 526.365, 174.957 524.239, 174.977 518.309 C 174.989 514.354, 174.550 510.840, 174 510.500 C 173.450 510.160, 173 509.044, 173 508.019 C 173 505.269, 165.861 499.645, 160.576 498.232 C 157.535 497.418, 147.824 497, 131.986 497 L 108 497 107.966 500.250 M 414.128 500.500 C 414.085 501.600, 414.462 504.300, 414.966 506.500 C 415.471 508.700, 416.115 511.793, 416.398 513.373 C 417.012 516.803, 418.017 518.119, 417.959 515.417 C 417.897 512.519, 414.220 498.200, 414.128 500.500 M 448.583 499.866 C 448.152 500.563, 448.070 501.403, 448.400 501.733 C 449.295 502.628, 450.271 501.312, 449.787 499.862 C 449.449 498.846, 449.213 498.846, 448.583 499.866 M 446.500 510 C 445.544 513.902, 444.966 517.299, 445.216 517.550 C 445.467 517.800, 446.444 514.803, 447.389 510.889 C 448.334 506.975, 448.911 503.578, 448.673 503.339 C 448.434 503.101, 447.456 506.098, 446.500 510 M 548.676 519 C 547.514 527.111, 546.904 529.059, 545.747 528.344 C 545.064 527.921, 544.951 528.668, 545.417 530.525 C 546.067 533.114, 545.982 533.230, 544.399 531.925 C 542.805 530.609, 542.769 530.681, 543.929 532.857 C 544.928 534.732, 544.931 535.449, 543.946 536.357 C 543.033 537.199, 542.874 537.201, 543.342 536.364 C 544.427 534.424, 539.800 533.899, 538.357 535.798 C 537.480 536.951, 537.053 537.078, 537.032 536.191 C 537.014 535.471, 536.570 535.148, 536.044 535.473 C 535.518 535.798, 535.369 536.798, 535.714 537.696 C 536.132 538.787, 535.952 539.088, 535.170 538.605 C 534.526 538.207, 533.971 537.121, 533.937 536.191 C 533.894 535.052, 533.556 535.294, 532.901 536.935 C 532.366 538.274, 532.164 539.985, 532.452 540.737 C 532.741 541.489, 532.563 541.848, 532.058 541.536 C 531.552 541.223, 530.824 541.475, 530.441 542.095 C 530.058 542.716, 530.364 543.616, 531.122 544.096 C 532.224 544.794, 532.162 544.972, 530.816 544.985 C 529.038 545.001, 529.080 547.449, 530.942 552.347 C 531.555 553.959, 531.469 555.198, 530.681 556.123 C 530.036 556.880, 531.860 555.276, 534.734 552.558 C 537.709 549.744, 541.255 545.007, 542.967 541.558 C 546.439 534.568, 550.291 520.307, 549.800 516.264 C 549.566 514.346, 549.223 515.183, 548.676 519 M 444.158 521 C 444.158 522.375, 444.385 522.938, 444.662 522.250 C 444.940 521.563, 444.940 520.438, 444.662 519.750 C 444.385 519.063, 444.158 519.625, 444.158 521 M 442.079 528.583 C 442.127 529.748, 442.364 529.985, 442.683 529.188 C 442.972 528.466, 442.936 527.603, 442.604 527.271 C 442.272 526.939, 442.036 527.529, 442.079 528.583 M 438.586 542.586 C 437.040 548.924, 435.962 554.295, 436.190 554.523 C 436.417 554.751, 437.868 549.751, 439.414 543.414 C 440.960 537.076, 442.038 531.705, 441.810 531.477 C 441.583 531.249, 440.132 536.249, 438.586 542.586 M 434.500 559 C 434.120 560.729, 434.018 562.351, 434.273 562.606 C 434.528 562.861, 435.024 561.632, 435.375 559.875 C 436.209 555.707, 435.401 554.899, 434.500 559 M 432.020 568.917 C 431.357 571.681, 430.993 574.479, 431.211 575.134 C 431.430 575.790, 432.187 573.743, 432.893 570.586 C 433.600 567.428, 433.964 564.630, 433.702 564.368 C 433.440 564.106, 432.683 566.153, 432.020 568.917" stroke="none" fill="#000000" fill-rule="evenodd"/>
</svg>